<?xml version="1.0" encoding="UTF-8"?>
<svg id="Layer_1" xmlns="http://www.w3.org/2000/svg" version="1.1" viewBox="0 0 159.3 35.6">
  <!-- Generator: Adobe Illustrator 29.5.0, SVG Export Plug-In . SVG Version: 2.1.0 Build 52)  -->
  <path d="M77.3.6h-13.3l-2.5,7h12.7c-11,3.1-16.4,11-19.5,20.1-1.3,3.9,1.6,7.9,5.7,7.9h14.6l8.8-25.8c1.5-4.5-1.8-9.2-6.6-9.2h.1ZM68.4,28.6h-4.4c1.8-5.9,5.1-10.8,10.8-15.8l-6.3,15.8h-.1Z"/>
  <path d="M97,21.1l-2.6,7.5h-4l7.2-21h4l-2.9,8.5h9l2.6-7.5c1.4-3.9-1.5-8-5.7-8h-8.9c-3.4,0-6.5,2.2-7.6,5.4l-7.4,21.6c-1.3,3.9,1.6,7.9,5.7,7.9h8.9c3.4,0,6.5-2.2,7.6-5.4l3.1-9.1h-9v.1Z"/>
  <polygon points="124.9 15.6 120.9 15.6 126 .6 116 .6 104 35.6 114 35.6 118.8 21.6 122.8 21.6 118 35.6 127 35.6 139 .6 130 .6 124.9 15.6"/>
  <path d="M26.6.6h-14.6L0,35.6h17.3c3.4,0,6.5-2.2,7.6-5.4l7.4-21.6c1.3-3.9-1.6-7.9-5.7-7.9v-.1ZM16.4,28.6h-4l7.2-21h4s-7.2,21-7.2,21Z"/>
  <path d="M52.6.6h-8.9c-3.4,0-6.5,2.2-7.6,5.4l-7.4,21.6c-1.3,3.9,1.6,7.9,5.7,7.9h8.9c3.4,0,6.5-2.2,7.6-5.4l7.4-21.6c1.3-3.9-1.6-7.9-5.7-7.9ZM42.4,28.6h-4l7.2-21h4l-7.2,21Z"/>
  <circle cx="149.6" cy="9.6" r="9.6"/>
</svg>